# xmcd CD database file
#
# Track frame offsets:
#	150
#	19463
#	36099
#	60770
#	88973
#	104706
#	129849
#
# Disc length: 2106 seconds
#
# Revision: 6
# Processed by: cddbd v1.5.2PL0 Copyright (c) Steve Scherf et al.
# Submitted via: CDex 1.70beta3
#
DISCID=57083807
DTITLE=泉こなた(平野 綾)、柊かがみ(加藤英美里)、柊つかさ(福原香織)、高良みゆき(遠藤綾) - もってけ！セーラーふくRe-Mix001 -7 burning Remixers- /泉こなた(平野 綾)、柊かがみ(加藤英美里)、柊つ
DTITLE=かさ(福原香織)、高良みゆき(遠藤綾)
DYEAR=2007
DGENRE=Anime
TTITLE0=もってけ！セーラーふく [調子こいて玉砕ミックス]
TTITLE1=もってけ！セーラーふく [メタボ対策Mix]
TTITLE2=もってけ！セーラーふく [中の人on the floor mix]
TTITLE3=もってけ！セーラーふく [-うんだかだ～教の野望-]
TTITLE4=もってけ！セーラーふく [グルコサミっくす]
TTITLE5=もってけ！セーラーふく [祭みっくす！]
TTITLE6=もってけ！セーラーふく [青春orzミックス]
EXTD=YEAR: 2007
EXTT0=
EXTT1=
EXTT2=
EXTT3=
EXTT4=
EXTT5=
EXTT6=
PLAYORDER=
